HIERARCHY
ROOT Hips
{
	OFFSET 0.000000 0.000000 0.000000
	CHANNELS 6 Xposition Yposition Zposition Zrotation Yrotation Xrotation 
	JOINT LHipJoint
	{
		OFFSET 0.000000 0.000000 0.000000
		CHANNELS 3 Zrotation Yrotation Xrotation
		JOINT LeftUpLeg
		{
			OFFSET 1.363060 -1.794630 0.839290
			CHANNELS 3 Zrotation Yrotation Xrotation
			JOINT LeftLeg
			{
				OFFSET 2.448110 -6.726130 0.000000
				CHANNELS 3 Zrotation Yrotation Xrotation
				JOINT LeftFoot
				{
					OFFSET 2.562200 -7.039590 0.000000
					CHANNELS 3 Zrotation Yrotation Xrotation
					JOINT LeftToeBase
					{
						OFFSET 0.157640 -0.433110 2.322550
						CHANNELS 3 Zrotation Yrotation Xrotation
						End Site
						{
							OFFSET 0.000000 0.000000 0.000000
						}
					}
				}
			}
		}
	}
	JOINT RHipJoint
	{
		OFFSET 0.000000 0.000000 0.000000
		CHANNELS 3 Zrotation Yrotation Xrotation
		JOINT RightUpLeg
		{
			OFFSET -1.305520 -1.794630 0.839290
			CHANNELS 3 Zrotation Yrotation Xrotation
			JOINT RightLeg
			{
				OFFSET -2.542530 -6.985550 0.000000
				CHANNELS 3 Zrotation Yrotation Xrotation
				JOINT RightFoot
				{
					OFFSET -2.568260 -7.056230 0.000000
					CHANNELS 3 Zrotation Yrotation Xrotation
					JOINT RightToeBase
					{
						OFFSET -0.164730 -0.452590 2.363150
						CHANNELS 3 Zrotation Yrotation Xrotation
						End Site
						{
							OFFSET 0.000000 0.000000 0.000000
						}
					}
				}
			}
		}
	}
	JOINT LowerBack
	{
		OFFSET 0.000000 0.000000 0.000000
		CHANNELS 3 Zrotation Yrotation Xrotation
		JOINT Spine
		{
			OFFSET 0.028270 2.035590 -0.193380
			CHANNELS 3 Zrotation Yrotation Xrotation
			JOINT Spine1
			{
				OFFSET 0.056720 2.048850 -0.042750
				CHANNELS 3 Zrotation Yrotation Xrotation
				JOINT Neck
				{
					OFFSET 0.000000 0.000000 0.000000
					CHANNELS 3 Zrotation Yrotation Xrotation
					JOINT Neck1
					{
						OFFSET -0.054170 1.746240 0.172020
						CHANNELS 3 Zrotation Yrotation Xrotation
						JOINT Head
						{
							OFFSET 0.104070 1.761360 -0.123970
							CHANNELS 3 Zrotation Yrotation Xrotation
							End Site
							{
								OFFSET 0.000000 0.000000 0.000000
							}
						}
					}
				}
				JOINT LeftShoulder
				{
					OFFSET 0.000000 0.000000 0.000000
					CHANNELS 3 Zrotation Yrotation Xrotation
					JOINT LeftArm
					{
						OFFSET 3.362410 1.200890 -0.311210
						CHANNELS 3 Zrotation Yrotation Xrotation
						JOINT LeftForeArm
						{
							OFFSET 4.983000 -0.000000 -0.000000
							CHANNELS 3 Zrotation Yrotation Xrotation
							JOINT LeftHand
							{
								OFFSET 3.483560 -0.000000 -0.000000
								CHANNELS 3 Zrotation Yrotation Xrotation
								JOINT LeftFingerBase
								{
									OFFSET 0.000000 0.000000 0.000000
									CHANNELS 3 Zrotation Yrotation Xrotation
									JOINT LeftHandIndex1
									{
										OFFSET 0.715260 -0.000000 -0.000000
										CHANNELS 3 Zrotation Yrotation Xrotation
										End Site
										{
											OFFSET 0.000000 0.000000 0.000000
										}
									}
								}
								JOINT LThumb
								{
									OFFSET 0.000000 0.000000 0.000000
									CHANNELS 3 Zrotation Yrotation Xrotation
									End Site
									{
										OFFSET 0.000000 0.000000 0.000000
									}
								}
							}
						}
					}
				}
				JOINT RightShoulder
				{
					OFFSET 0.000000 0.000000 0.000000
					CHANNELS 3 Zrotation Yrotation Xrotation
					JOINT RightArm
					{
						OFFSET -3.136600 1.374050 -0.404650
						CHANNELS 3 Zrotation Yrotation Xrotation
						JOINT RightForeArm
						{
							OFFSET -5.241900 -0.000000 -0.000000
							CHANNELS 3 Zrotation Yrotation Xrotation
							JOINT RightHand
							{
								OFFSET -3.444170 -0.000000 -0.000000
								CHANNELS 3 Zrotation Yrotation Xrotation
								JOINT RightFingerBase
								{
									OFFSET 0.000000 0.000000 0.000000
									CHANNELS 3 Zrotation Yrotation Xrotation
									JOINT RightHandIndex1
									{
										OFFSET -0.622530 -0.000000 -0.000000
										CHANNELS 3 Zrotation Yrotation Xrotation
										End Site
										{
											OFFSET 0.000000 0.000000 0.000000
										}
									}
								}
								JOINT RThumb
								{
									OFFSET 0.000000 0.000000 0.000000
									CHANNELS 3 Zrotation Yrotation Xrotation
									End Site
									{
										OFFSET 0.000000 0.000000 0.000000
									}
								}
							}
						}
					}
				}
			}
		}
	}
}
MOTION
Frames: 4
Frame Time: 0.008333
-0.917461 14.400251 0.449524 173.907522 69.153837 -141.381499 -2.649084 0.688509 2.273375 -8.317912 -12.410325 -103.474314 16.612728 18.506244 78.341605 2.673155 -22.352304 3.621167 0.012300 0.715800 1.967000 -1.460007 -2.229416 3.544351 17.738513 -3.960002 -104.065382 -18.513844 -21.632783 85.676287 -2.093546 16.090632 -7.588308 -0.666300 5.220100 -14.537400 -5.162957 -1.781589 31.928392 -4.859048 -1.692957 17.214824 -1.121860 -0.807463 -7.073215 -0.705147 5.943428 -27.426720 -8.328903 9.269320 1.764480 -3.914700 3.526500 6.195700 0.093017 -2.725963 -3.495084 -36.058526 -52.582780 2.204854 45.144670 -46.721174 -18.102784 -2.575688 -0.745345 -78.431858 -3.904155 35.154856 -1.433500 -7.125000 0.000000 0.000000 -38.789500 58.335800 -13.996400 4.837826 1.198041 11.217318 -91.532220 79.751428 -128.880953 -26.750836 43.874036 -7.657067 1.003908 -0.745735 -48.707147 -2.026471 2.358166 -0.134000 7.125000 0.000000 0.000000 18.364300 -26.252500 8.777900 
-0.933829 14.477315 0.439294 174.125741 69.405439 -141.334346 -2.642134 0.681658 2.247982 -8.521907 -12.336045 -102.675528 16.299987 18.440415 77.390499 2.678984 -22.105177 3.679078 0.010100 0.650500 1.787600 -1.498528 -2.225531 3.530754 18.003091 -3.797976 -103.311912 -18.098342 -21.574020 84.481970 -2.081922 16.056034 -7.555995 -0.691700 5.316700 -14.814000 -5.074717 -1.874831 31.544063 -4.802201 -1.756197 17.240341 -1.299140 -0.868974 -6.901323 -0.421485 5.975008 -27.704332 -8.307055 9.318855 2.073990 -3.978800 3.548000 6.301100 0.073173 -2.438315 -3.600424 -36.563945 -52.336793 3.305326 45.431640 -46.832827 -18.311394 -2.568120 -0.752147 -78.265119 -3.923799 35.135731 -1.437400 -7.125000 0.000000 0.000000 -38.790800 58.329500 -13.991000 4.756914 0.934434 11.641690 -93.791877 80.034343 -131.382692 -27.304563 43.740549 -7.821098 1.062556 -0.604835 -48.737754 -1.973700 2.671557 -0.149900 7.125000 0.000000 0.000000 18.257900 -26.002400 8.835200 
-0.950391 14.547948 0.432279 174.249944 69.728454 -141.365942 -2.637019 0.672488 2.225158 -8.773840 -12.214200 -101.940950 15.992450 18.374012 76.451530 2.682885 -21.897776 3.746960 0.007700 0.565700 1.554400 -1.538340 -2.225820 3.518570 18.178642 -3.581116 -102.566986 -17.680610 -21.504583 83.284890 -2.055752 16.053576 -7.333823 -0.642200 5.126700 -14.270300 -5.128662 -1.927840 31.056407 -4.740715 -1.815314 17.350276 -1.332043 -0.925534 -6.760928 -0.190833 5.986467 -28.087678 -8.311492 9.393378 2.554996 -4.021100 3.573000 6.486200 0.049451 -2.202148 -3.625742 -36.981888 -51.889205 4.317275 45.902078 -47.052889 -18.641640 -2.521420 -0.788556 -78.200147 -4.172477 34.566651 -1.535500 -7.125000 0.000000 0.000000 -38.499000 57.878000 -13.431500 4.663822 0.769807 11.894022 -95.357357 80.583581 -132.752496 -28.142768 43.742749 -8.085203 1.094433 -0.538355 -49.116571 -2.250014 2.615739 -0.169600 7.125000 0.000000 0.000000 18.022400 -26.075800 8.676800 
-0.965395 14.625694 0.422634 174.601025 70.019700 -141.261382 -2.629094 0.658779 2.202310 -8.974919 -12.013147 -101.107257 15.682547 18.304712 75.515834 2.678499 -21.703489 3.934318 0.010600 0.664100 1.825000 -1.577257 -2.233500 3.511370 18.509453 -3.394995 -101.701543 -17.247680 -21.421286 82.031628 -2.035722 16.235810 -7.104146 -0.555500 4.774400 -13.266300 -5.163185 -1.963292 30.736288 -4.572791 -1.880287 17.327805 -1.290073 -0.974259 -6.677911 -0.213320 5.945154 -28.354808 -8.165724 9.437838 3.053966 -3.966200 3.591600 6.646500 0.023305 -2.046159 -3.589270 -37.606617 -51.383183 5.041714 46.332083 -47.246514 -18.949622 -2.505288 -0.830021 -78.366051 -4.429506 34.442920 -1.652300 -7.125000 0.000000 0.000000 -38.616400 57.750900 -13.358500 4.583416 0.680568 12.041076 -96.223804 81.285755 -133.098877 -29.015717 43.789559 -8.336686 1.102338 -0.516470 -49.609873 -2.370394 2.544440 -0.174700 7.125000 0.000000 0.000000 17.937700 -26.150200 8.598900 
